<svg viewBox="0 0 325 70" xmlns="http://www.w3.org/2000/svg" fill-rule="evenodd" clip-rule="evenodd" stroke-linejoin="round" stroke-miterlimit="1.414"><path fill="none" d="M0 0h324.775v69.871H0z"/><path d="M38.535 60.729c.746.042 1.55-.069 2.205-.377 1.626-1.477 3.919-2.336 6.088-1.506 1.289.683 2.398 1.766 3.918 1.883 1.802.263 2.811-1.505 4.37-1.883 1.52-.654 3.084.098 4.321.893.367.28.751.641.793 1.102-1.248-.304-3.033-.787-4.171.186-1.382.823-2.741 2.134-4.542 1.492-.771-.232-1.337-.944-2.054-1.283-1.242-.769-2.957-1.427-4.391-.647-1.189.384-2.03 1.563-3.271 1.79-2.729 1.032-4.287-2.027-6.859-1.993-1.218.016-2.519-.058-3.371.885-1.1.9-2.325 1.948-3.866 1.349-1.894-.415-3.131-2.469-5.342-2.031-2.622.317-5.019 3.202-7.764 1.242-.526-.378-.906-.925-.906-1.568 1.288 1.043 2.968.152 4.198-.35 1.078-.584 2.13-1.353 3.482-1.109 1.313.304 2.565.822 3.651 1.681 1.137.752 2.763.419 3.872-.141 1.148-.627 1.952-2.047 3.422-1.855 2.457-.19 4.094 1.633 6.217 2.24m1.445-11.84c8.352.3 16.359 1.508 23.748 4.148l-.741 1.972c-5.171-1.663-10.635-2.801-16.271-3.43l-4.805-.379c-10.764-.593-21.359.299-30.69 3.687l-.63-1.856c4.53-1.883 9.411-2.922 14.45-3.561l4.433-.409 5.387-.204.151-.019 4.968.051zm20.802-.086l-.517-.156c.5-1.504 1.392-2.998.892-4.727l.063-.259c1.154 1.627.024 3.528-.438 5.142m-47.689-4.011c.034 1.423.629 2.612 1.066 3.889l-.518.135c-.48-1.593-1.563-3.552-.445-5.197.113.357-.115.76-.103 1.173m38.057-4.018l.105.315-.823 4.373c-.392.011-.794-.121-1.206-.174l.921-4.521c.11-.185.313-.29.477-.349.264-.046.403.191.526.356m-27.206-.104l.117.226.841 4.392c-.396.081-.789.122-1.184.186l-.812-4.403a.802.802 0 0 1 .456-.653c.232-.017.419.094.582.252m27.311-2.071c.587.46 1.2.839 1.917.979l-1.322 7.348c-1.46-.203-2.929-.491-4.381-.588l1.425-6.859c.822-.232 1.572-.594 2.361-.88m-25.998.88l1.447 6.859c-1.483.097-2.924.385-4.403.588l-1.336-7.325c.705-.174 1.37-.541 1.965-1.032.764.344 1.521.678 2.327.91m22.666-.157l-1.346 6.91c-.745-.035-1.505-.246-2.328-.194l1.547-7.8c.781.202 1.427.699 2.127 1.084m-18.002 6.716c-.822-.038-1.556.143-2.338.207l-1.335-6.905c.646-.455 1.348-.864 2.082-1.137l1.591 7.835zm-14.083-9.557c.024.445-.554.648-.519 1.109l.175.857 4.194 8.881.034.035-2.669.618c-.603-1.713-1.108-3.697-2.894-4.687-.314-.175-.63-.323-.998-.385-.815.954-1.27 2.25-.815 3.51.21.916.536 1.807.85 2.693l-2.449.839-2.32-9.317c-.14-1.021-1.422-.542-1.714-1.436l8.992-3.084c.104.052.098.245.133.367m51.785 2.666c-.263.903-1.679.454-1.76 1.557l-2.228 9.179v.006l-2.449-.812c.471-1.322 1.055-2.746.933-4.321a3.785 3.785 0 0 0-.899-1.847c-.438 0-.804.262-1.184.447-1.668 1.023-2.151 2.912-2.729 4.573l-2.676-.618 4.25-8.975c.066-.402.31-.92-.005-1.256a.855.855 0 0 1-.308-.978l.027-.023 9.028 3.068zm-53.231-5.335l.046 1.637-7.295 2.502-.104-.051-.909-1.306c-.134-.005-.274.069-.414.103l-.007-2.745 2.001 1.643 4.881-1.713c.15-.735.193-1.487.309-2.224l1.843 2.041-.351.113zm52.223 1.741c.699-.468 1.358-1.059 2.011-1.609v2.731l-.366-.122c-.357.435-.689.933-1.032 1.362l-7.321-2.529.055-1.582-.363-.167 1.821-2.001.329 2.204 4.866 1.713zM32.674 45.916h8.794V31.468h-8.794v14.448zm36.792-12.794c-.227.077-.437.006-.648-.07a.837.837 0 0 1-.314-.553c-.04-.759.956-.705 1.15-1.388-.194.734.775 1.556-.188 2.011m-63.793-.209a.662.662 0 0 1-.57.234.652.652 0 0 1-.513-.228c-.467-.601.28-1.109.094-1.808.245.705 1.708.846.989 1.802m7.279-2.147a.85.85 0 0 1-.781.193.86.86 0 0 1-.419-.426c-.165-.605.412-.927.241-1.569.276.665 1.677.886.959 1.802m49.098.222c-.246.007-.455 0-.63-.174-.2-.176-.27-.456-.2-.746.227-.514.927-.549 1.125-1.11-.233.69.851 1.698-.295 2.03m-9.786-2.379c.232.664.11 1.458.698 1.966-.395.28-.904.716-.787 1.254.321 1.231 2.292 1.912 1.668 3.429-.174.56-.839.95-.723 1.614.198.734.613 1.366.968 2.048-1.015-.334-2.046-.682-2.817-1.547l-2.56 1.249c-.989-.664-1.995-1.26-3.127-1.564.404-.438 1.314-.822 1.104-1.566-.182-.463-.421-.97-.263-1.54.327-1.057 1.47-1.627 2.362-2.107.282-.261.718-.56.543-1.031-.147-.239-.339-.456-.507-.696.994-.436.57-1.765 1.672-2.081.655-.28 1.389.029 1.769.572m-27.899.034c.256.498.314 1.207.963 1.453-.211.386-.754.718-.474 1.224.753 1.005 2.146 1.067 2.707 2.275.541.706-.064 1.475-.138 2.203l.073.252 1.079 1.008c-1.12.304-2.129.865-3.108 1.564l-2.606-1.249c-.77.857-1.774 1.249-2.799 1.547.447-.724.832-1.477.997-2.326-.368-.796-1.19-1.617-.69-2.561.387-.816 1.418-1.358 1.617-2.239.105-.538-.403-.877-.759-1.192.069-.237.334-.465.408-.745.159-.646.065-1.539.87-1.784.617-.245 1.503-.123 1.86.57m13.087-.325c-.019-.319-.071-.671-.043-1.033l.426-.139.648.85-1.031.322zm-.865 0l-1.032-.314.583-.858.449.139v1.033zm3.218-1.417l-.744.78c-.07-.414-.899-.904-.217-1.217.322.133.637.291.961.437m-4.32-.163l-.379 1.013-.822-.78.857-.507c.134.062.239.185.344.274m4.671-.293c-.262-.339-1.375-.444-.764-1.05h1.043l-.279 1.05zm-5.458-1.05c.612.561-.432.711-.648 1.034l-.028.016-.321-1.05h.997zm-25.945.123c.036.379-.051.718-.228 1.008.754 2.281 1.75 4.497 2.906 6.621-1.051.432-2.189.799-3.318 1.206-.543-2.333-.97-4.713-2.072-6.828-.313-.106-.71-.24-.816-.596a.875.875 0 0 1 0-.745c.106-.14.293-.315.491-.245.238-.008.367.133.536.273.392.403-.242 1.068.477 1.336.159.187.455.157.667.133.237-.086.454-.227.577-.467.062-.231.035-.419 0-.646-.2-.139-.421-.349-.473-.567a.868.868 0 0 1 .174-.779c.106-.07.211-.147.361-.175a.767.767 0 0 1 .718.471m57.89-.366a.797.797 0 0 1 .21.675c.018.322-.296.56-.501.77-.052.297-.059.647.22.841.246.208.613.319.935.157l.473-.449c.028-.35-.193-.83.202-1.067.176-.146.42-.233.666-.159.164.036.268.222.331.362a.949.949 0 0 1-.202.829c-.159.226-.403.279-.633.349-1.14 2.094-1.59 4.49-2.117 6.841l-3.321-1.154c1.19-2.124 2.111-4.363 2.95-6.652-.203-.294-.348-.634-.245-1.029.07-.216.315-.357.493-.427.196-.027.399 0 .539.113m-26.208-.55c-.342.059-.714 0-1.043.041l-.163-.453.892-.597.314 1.009zm-5.73-.035v.035h-1.004l.287-1.032c.262.27 1.205.478.717.997m17.768 2.292c-.228.217-.509.35-.84.355-.469-.021-.927-.266-1.138-.719-.168-.276-.132-.598-.063-.907.385-.751 1.381-1.196 1.516-2.081-.211 1.288 1.698 2.152.525 3.352m-28.895-.21c-.287.427-.787.602-1.295.544-.316-.117-.67-.292-.845-.625-.573-1.179.925-1.859.774-3.061.089 1.237 2.286 1.715 1.366 3.142m13.699-1.812c.256.378.419.77.675 1.131l-.403.268-.764-1.283v-2.059h.492v1.943zm2.528-1.862c-.401.071-.884.771-1.27.216l.492-.915.778.699zm-4.635.454l-.956-.435.798-.718c.059.35.864.909.158 1.153m3.365-1.486c-.355.246-.409 1.311-1.056.736v-1.08l1.056.344zm-2.397.84l-.611-.84 1.084-.344v1.08l-.473.104zm6.125 7.774l-10.382.018v-11.18h10.382v11.162zm-2.607-14.818l1.572 2.853-8.315.033 1.539-2.886.019-1.96 2.594-6.175 2.591 6.281v1.854zm-2.204-9.954c.384.676-.393 1.102-.387 1.749.036-.688-.927-1.452-.071-1.994a.399.399 0 0 1 .458.245M231.796 53.452h2.693l.432-5.559c.053-.704.109-1.394.146-2.105.055-.707.075-1.437.075-2.197l1.677 9.861h1.977l1.789-9.805c0 .838.006 1.6.059 2.304.033.69.056 1.313.091 1.856l.29 5.645h2.761l-1.177-12.075h-3.454l-.908 4.609c-.021.296-.107.819-.181 1.437-.057.601-.166 1.452-.27 2.436a26.2 26.2 0 0 0-.201-1.959c-.024-.64-.131-1.29-.236-1.914l-.711-4.609h-3.491l-1.361 12.075zM230.4 41.377h-2.69v7.74c0 .417-.035.793-.086 1.035a1.725 1.725 0 0 1-.221.758c-.072.198-.222.328-.404.421-.217.105-.525.127-.865.127-.332 0-.641-.022-.854-.13-.216-.105-.351-.22-.459-.437a1.56 1.56 0 0 1-.197-.739c-.019-.283-.019-.656-.019-1.035v-7.74h-2.756v7.571c0 .641 0 1.204.084 1.689.017.477.129.907.328 1.235.33.6.785 1.035 1.439 1.277.684.303 1.465.424 2.434.424.974 0 1.793-.121 2.41-.424a2.85 2.85 0 0 0 1.453-1.277c.186-.328.297-.738.332-1.2.051-.52.071-1.071.071-1.724v-7.571zm-13.565 12.075h2.813V41.377h-2.813v12.075zm-9.537 0h7.719v-2.379h-3.963l4.361-9.696h-7.465v2.217h3.764l-4.416 9.858zm-1.545-16.217h-2.291l-1.744 3.084h1.223l2.812-3.084zm-3.645 12.203c.176-.977.374-1.917.485-2.835.127-.923.322-1.815.437-2.719.108.926.233 1.888.346 2.815.195.924.326 1.848.574 2.739h-1.842zm-3.64 4.014h2.724l.42-2.124h2.739l.472 2.124h2.696l-3.004-12.075h-2.883l-3.164 12.075zm-9.483 0h2.51v-5.1c0-.671-.004-1.312-.021-1.962a12.945 12.945 0 0 0-.196-1.71c.213.567.327 1.003.438 1.332.103.356.193.576.217.684l2.996 6.756h2.543V41.377h-2.543v4.635c0 .649.035 1.337.109 2.047.086.71.164 1.475.324 2.29-.185-.636-.382-1.146-.541-1.58-.127-.417-.236-.745-.328-.876l-2.746-6.516h-2.762v12.075zm-13.474 0h2.689l.436-5.559c.086-.704.111-1.394.162-2.105.051-.707.059-1.437.059-2.197l1.687 9.861h1.963l1.795-9.805c0 .838 0 1.6.088 2.304.006.69.025 1.313.072 1.856l.277 5.645h2.774l-1.156-12.075h-3.471l-.889 4.609c-.06.296-.144.819-.205 1.437-.072.601-.162 1.452-.269 2.436-.02-.656-.11-1.309-.182-1.959-.059-.64-.16-1.29-.256-1.914l-.709-4.609h-3.537l-1.328 12.075zm-5.535 0h2.718v-5.667l3.164-6.408h-2.669l-.981 2.235c-.109.303-.223.596-.351.976-.139.369-.268.818-.381 1.311-.145-.346-.268-.76-.412-1.111a9.242 9.242 0 0 0-.457-1.197l-.874-2.214h-2.89l3.133 6.408v5.667zm-7.708-6.842v2.156h2.451c0 .823-.199 1.469-.541 1.906-.33.436-.818.656-1.452.656-.659 0-1.199-.328-1.543-.981-.331-.65-.532-1.631-.532-2.941 0-1.306.163-2.274.491-2.921.324-.656.857-.98 1.584-.98 1.015 0 1.58.63 1.798 1.828l2.454-.982c-.328-1.035-.838-1.795-1.58-2.337-.679-.526-1.55-.768-2.584-.768-.744 0-1.414.127-2.013.401-.602.278-1.096.688-1.531 1.233-.434.504-.763 1.15-.979 1.911-.254.765-.365 1.638-.365 2.615 0 .982.111 1.855.365 2.615.216.762.545 1.415.926 1.959.404.494.924.927 1.488 1.169.582.303 1.235.424 1.911.424.709 0 1.364-.121 1.959-.424a3.934 3.934 0 0 0 1.506-1.255 6.05 6.05 0 0 0 .947-1.981c.252-.796.362-1.691.362-2.758 0-.073 0-.134-.035-.242a3.124 3.124 0 0 1-.016-.303h-5.071zm-10.19-9.375h-2.321l-1.712 3.084h1.253l2.78-3.084zm-5.535 16.217h5.775v-2.379h-3.109v-2.829h2.819v-2.201h-2.819v-2.434h3.109v-2.232h-5.775v12.075zm-9.118-.051h2.664v-5.836l2.674 5.836h2.907l-2.907-6.523 2.799-5.501h-2.802l-2.671 5.233v-5.233h-2.664v12.024zm-1.69-.143v-2.367a4.458 4.458 0 0 1-1.421.243c-.466 0-.853-.061-1.234-.24-.39-.197-.723-.421-1-.742a2.868 2.868 0 0 1-.653-1.169c-.196-.471-.254-.981-.254-1.612 0-.602.058-1.147.254-1.602.127-.522.344-.905.653-1.249.24-.363.568-.586.946-.761a3.01 3.01 0 0 1 1.202-.261c.523 0 .982.093 1.507.274v-2.249a5.476 5.476 0 0 0-1.725-.277c-.82 0-1.599.131-2.292.436a5.075 5.075 0 0 0-1.849 1.223c-.459.573-.892 1.234-1.198 2.011-.242.767-.436 1.672-.436 2.563 0 .959.194 1.778.436 2.539a5.71 5.71 0 0 0 1.25 1.876c.493.578 1.138.962 1.851 1.249.744.309 1.526.43 2.348.43.302 0 .54-.013.812-.099.257-.018.495-.108.803-.216m-12.102.194h2.784V41.377h-2.784v12.075zm-6.971 0h5.779v-2.379h-3.105v-9.696h-2.674v12.075zm-6.812-6.842v2.156h2.451c0 .823-.199 1.469-.542 1.906-.329.436-.816.656-1.45.656-.657 0-1.2-.328-1.545-.981-.332-.65-.529-1.631-.529-2.941 0-1.306.162-2.274.481-2.921.322-.656.865-.98 1.593-.98 1.014 0 1.579.63 1.798 1.828l2.451-.982c-.326-1.035-.836-1.795-1.58-2.337-.677-.526-1.548-.768-2.582-.768-.744 0-1.414.127-2.015.401-.599.278-1.092.688-1.528 1.233-.437.504-.764 1.15-.982 1.911-.251.765-.361 1.638-.361 2.615 0 .982.108 1.855.328 2.615.251.762.544 1.415.928 1.959.437.494.927.927 1.521 1.169.582.303 1.235.424 1.912.424.71 0 1.363-.121 1.959-.424.583-.276 1.073-.677 1.506-1.255.402-.545.72-1.197.946-1.981.252-.796.362-1.691.362-2.758 0-.073 0-.134-.037-.242-.013-.108-.013-.198-.013-.303h-5.072zm-14.526 6.842h2.537v-5.1c0-.671 0-1.312-.05-1.962-.035-.598-.057-1.163-.153-1.71.203.567.313 1.003.422 1.332.11.356.132.576.218.684l2.996 6.756h2.526V41.377h-2.526v4.635c0 .649.021 1.337.11 2.047.024.71.132 1.475.326 2.29-.218-.636-.412-1.146-.541-1.58-.112-.417-.222-.745-.33-.876l-2.758-6.516h-2.777v12.075zm-6.429-4.014c.194-.977.326-1.917.522-2.835.128-.923.239-1.815.435-2.719.108.926.218 1.888.347 2.815.145.924.327 1.848.529 2.739h-1.833zm-3.651 4.014H88l.436-2.124h2.694l.483 2.124h2.726l-3.015-12.075h-2.885l-3.195 12.075zm226.179-21.565h5.775v-2.345h-3.105v-2.815h2.799v-2.199h-2.799v-2.449h3.105v-2.233h-5.775v12.041zm-2.102-12.041h-2.675v7.753c0 .385-.016.749-.051 1.039-.053.273-.074.544-.186.71-.107.214-.303.325-.484.436-.219.102-.494.141-.854.141-.347 0-.656-.048-.822-.141-.182-.111-.379-.239-.486-.439-.11-.217-.166-.44-.217-.727 0-.305-.016-.634-.016-1.019v-7.753h-2.726v7.571c0 .653.047 1.201.066 1.689.006.459.149.892.33 1.223a2.744 2.744 0 0 0 1.469 1.303c.637.27 1.422.386 2.402.386 1.014 0 1.793-.116 2.43-.386.654-.236 1.109-.676 1.469-1.303.17-.328.277-.729.328-1.211.023-.484.023-1.045.023-1.701v-7.571zm-15.226 5.23v2.131h2.42c0 .863-.131 1.517-.51 1.918-.363.437-.815.652-1.414.652-.693 0-1.203-.324-1.567-.974-.376-.624-.544-1.606-.544-2.911 0-1.341.162-2.32.49-2.941.328-.636.869-.962 1.621-.962.982 0 1.58.599 1.793 1.794l2.453-.997c-.328-1.016-.865-1.797-1.576-2.319-.746-.51-1.619-.768-2.615-.768-.747 0-1.405.144-2.016.417-.6.275-1.096.673-1.529 1.201-.469.542-.797 1.195-1.014 1.927-.219.762-.33 1.635-.33 2.648 0 .981.111 1.853.33 2.615.217.729.545 1.379.963 1.911.398.538.92.927 1.486 1.204.545.28 1.233.396 1.908.396.741 0 1.397-.116 1.959-.402.584-.306 1.09-.695 1.475-1.201.437-.545.76-1.236.982-2.019.217-.813.325-1.724.325-2.756v-.277c-.004-.07-.004-.181-.004-.287h-5.086zm-10.33 2.8c.201-.946.363-1.876.521-2.803.135-.959.278-1.835.438-2.756.107 1.014.187 1.906.381 2.865.128.926.326 1.818.509 2.694h-1.849zm-3.651 4.011h2.754l.438-2.11h2.73l.487 2.11h2.691l-3.02-12.041h-2.863l-3.217 12.041zm-4.978-6.814v-3.322c.068-.035.123-.035.181-.035h.198c.601 0 1.037.143 1.312.382.268.27.401.688.401 1.255 0 1.175-.571 1.723-1.799 1.723h-.131c-.086 0-.111-.003-.162-.003m-2.615 6.814h2.615v-4.995l2.201 4.995h2.885l-2.582-5.486c1.416-.401 2.142-1.471 2.142-3.16 0-1.216-.343-2.086-1.101-2.58-.715-.545-1.838-.815-3.362-.815h-2.798v12.041zm-6.104-6.814v-3.322c.02 0 .107 0 .131-.035h.142c.616 0 1.086.143 1.329.382.322.305.437.704.437 1.255 0 .589-.131.981-.441 1.302-.325.31-.729.421-1.325.421h-.142l-.131-.003m-2.654 6.814h2.654v-4.995c.107.003.217.003.324.003h.274c1.306 0 2.287-.328 2.963-.895.711-.637 1.074-1.519 1.074-2.65 0-1.201-.367-2.074-1.094-2.666-.742-.548-1.85-.838-3.359-.838h-2.836v12.041zm-14.873 0h2.539v-5.066c0-.69 0-1.311-.047-1.942-.039-.603-.061-1.198-.151-1.742.198.579.313 1.063.418 1.391.108.329.131.545.217.622l2.996 6.737h2.528V19.846h-2.528v4.596c0 .654.024 1.364.11 2.103.056.675.166 1.439.328 2.258-.221-.624-.414-1.159-.541-1.583a5.987 5.987 0 0 0-.326-.892l-2.764-6.482h-2.779v12.041zm-5.032 0h2.777V19.846h-2.777v12.041zm-11.968 0h5.775v-2.345h-3.105v-2.815h2.816v-2.199h-2.816v-2.449h3.105v-2.233h-5.775v12.041zm-6.776-6.811v2.131h2.45c0 .863-.194 1.517-.526 1.918-.346.437-.818.652-1.424.652-.697 0-1.242-.324-1.572-.974-.348-.624-.51-1.606-.51-2.911 0-1.341.162-2.32.49-2.941.325-.636.838-.962 1.592-.962.989 0 1.575.599 1.756 1.794l2.485-.997c-.36-1.016-.854-1.797-1.577-2.319-.711-.51-1.584-.768-2.603-.768a4.77 4.77 0 0 0-2.016.417 4.314 4.314 0 0 0-1.545 1.201c-.433.542-.758 1.195-.98 1.927-.217.762-.326 1.635-.326 2.648 0 .981.109 1.853.326 2.615a6.11 6.11 0 0 0 .945 1.911c.385.538.91.927 1.475 1.204.58.28 1.23.396 1.908.396.738 0 1.363-.116 1.99-.402.553-.306 1.059-.695 1.442-1.201a5.669 5.669 0 0 0 1.011-2.019c.221-.813.328-1.724.328-2.756v-.277c0-.07-.035-.181-.035-.287h-5.084zm-11.445 6.811h5.725v-2.345h-3.106v-2.815h2.828v-2.199h-2.828v-2.449h3.106v-2.233h-5.725v12.041zm-6.918 0h5.83v-2.345h-3.107v-9.696h-2.723v12.041zm-6.868 0h5.796v-2.345h-3.106v-9.696h-2.69v12.041zm-6.52-2.128c-1.413 0-2.071-1.303-2.071-3.867 0-2.6.658-3.903 2.071-3.903 1.366 0 2.107 1.303 2.107 3.903 0 2.564-.741 3.867-2.107 3.867m4.8-3.736c0-.985-.11-1.909-.328-2.673-.22-.816-.513-1.469-.949-2.013a4.526 4.526 0 0 0-1.525-1.217 4.782 4.782 0 0 0-1.998-.421c-.758 0-1.413.144-1.979.417a4.027 4.027 0 0 0-1.522 1.199 7.086 7.086 0 0 0-.965 1.929c-.22.762-.33 1.635-.33 2.648 0 1.962.422 3.453 1.258 4.539.849 1.07 2.015 1.587 3.538 1.587.71 0 1.363-.116 1.963-.396.598-.277 1.123-.659 1.525-1.184.421-.51.747-1.113.981-1.909.221-.713.331-1.547.331-2.506m-10.813 5.752v-2.433c-.52.2-.981.308-1.453.308-.433 0-.867-.108-1.216-.302-.412-.134-.741-.437-.981-.73-.307-.325-.526-.742-.69-1.181-.162-.455-.237-.997-.237-1.596 0-.638.075-1.182.223-1.621.159-.453.376-.889.618-1.217.304-.36.631-.6.981-.794.412-.134.814-.242 1.248-.242.442 0 .967.108 1.507.242v-2.204a4.444 4.444 0 0 0-1.688-.306c-.873 0-1.636.147-2.375.437-.708.306-1.277.742-1.801 1.287-.542.544-.892 1.197-1.199 1.93-.324.799-.402 1.67-.402 2.647 0 .892.114 1.745.405 2.472a6.561 6.561 0 0 0 1.199 1.943 6.647 6.647 0 0 0 1.888 1.197c.723.278 1.522.406 2.393.406.223 0 .491-.004.733-.023.303-.086.543-.143.847-.22m-21.885.112h2.674v-5.234h3.052v5.234h2.723V19.846h-2.723v4.466h-3.052v-4.466h-2.674v12.041zm-7.792-.421c.688.383 1.452.552 2.378.552 1.219 0 2.184-.328 2.888-.931.677-.649 1.005-1.522 1.005-2.58 0-.434-.024-.8-.132-1.09-.105-.328-.218-.63-.435-.872a5.658 5.658 0 0 0-.656-.739 16.163 16.163 0 0 1-.924-.71c-.22-.182-.438-.345-.651-.507a4.082 4.082 0 0 1-.526-.475c-.113-.131-.223-.325-.328-.49-.022-.182-.108-.38-.108-.596 0-.296.145-.621.412-.832.238-.21.55-.318.981-.318.22 0 .461.042.766.111.288.109.62.255 1.033.434v-2.141c-.413-.166-.764-.331-1.146-.436a5.06 5.06 0 0 0-1.174-.147c-.546 0-1.005.058-1.439.252a3.187 3.187 0 0 0-1.147.71 3.406 3.406 0 0 0-.757 1.093c-.165.433-.223.889-.223 1.417 0 .376.019.724.114 1.036.105.321.232.614.433.885.131.274.382.548.657.819.273.274.598.544.945.854.215.13.412.273.595.432.168.116.362.243.491.386.113.162.221.275.331.401.085.195.109.361.109.545 0 .382-.113.685-.352.905-.303.216-.652.325-1.124.325-.668 0-1.328-.268-2.016-.797v2.504zm-4.647.421h2.779V19.846h-2.779v12.041zm-6.979 0h5.796v-2.345h-3.106v-9.696h-2.69v12.041zm-6.842-6.811v2.131h2.484c0 .863-.196 1.517-.54 1.918-.333.437-.818.652-1.419.652-.691 0-1.232-.324-1.578-.974-.331-.624-.532-1.606-.532-2.911 0-1.341.166-2.32.49-2.941.329-.636.871-.962 1.62-.962.983 0 1.58.599 1.763 1.794l2.453-.997c-.326-1.016-.836-1.797-1.547-2.319-.71-.51-1.583-.768-2.613-.768-.744 0-1.416.144-2.016.417a4.365 4.365 0 0 0-1.563 1.201 6.26 6.26 0 0 0-.948 1.927 9.575 9.575 0 0 0-.361 2.648c0 .981.108 1.853.361 2.615a6.43 6.43 0 0 0 .93 1.911c.432.538.891.927 1.521 1.204.549.28 1.2.396 1.909.396.675 0 1.33-.116 1.927-.402.546-.306 1.073-.695 1.505-1.201.435-.545.728-1.236.981-2.019.219-.813.326-1.724.326-2.756 0-.109 0-.182-.034-.277v-.287h-5.119zm-14.462 6.811h2.505v-5.066c0-.69 0-1.311-.049-1.942-.037-.603-.059-1.198-.148-1.742.197.579.31 1.063.415 1.391.078.329.166.545.187.622l2.997 6.737h2.557V19.846h-2.557v4.596c0 .654.086 1.364.11 2.103.088.675.196 1.439.325 2.258-.216-.624-.349-1.159-.508-1.583-.145-.399-.223-.675-.326-.892l-2.764-6.482h-2.744v12.041zm-7.612 0h5.728v-2.345h-3.107v-2.815h2.865v-2.199h-2.865v-2.449h3.107v-2.233h-5.728v12.041zm-11.824 0h5.761v-2.345h-3.109v-2.815h2.803v-2.199h-2.803v-2.449h3.109v-2.233h-5.761v12.041zm-10.588 0h2.689v-5.234h3.051v5.234h2.724V19.846h-2.724v4.466h-3.051v-4.466h-2.689v12.041zm-6.194 0h2.762v-9.808h2.039v-2.233h-6.922v2.233h2.121v9.808z" fill="#fff"/></svg>