<svg xmlns="http://www.w3.org/2000/svg" width="19.126" height="19.127" viewBox="0 0 19.126 19.127"><path d="M18.95 15.366l-5.802-5.802 5.802-5.802a.598.598 0 0 0 0-.845L16.21.176a.598.598 0 0 0-.845-.001L9.562 5.977 3.76.175a.597.597 0 0 0-.843-.001l-.002.002-2.74 2.741a.598.598 0 0 0 0 .845l5.802 5.802-5.802 5.802a.597.597 0 0 0-.001.844l.001.001 2.741 2.741a.598.598 0 0 0 .845 0l5.802-5.802 5.802 5.802a.598.598 0 0 0 .845 0l2.741-2.741a.597.597 0 0 0-.001-.845c.001 0 .001 0 0 0z" fill="#fff"/></svg>